<?xml version="1.0" encoding="UTF-8" standalone="no"?>
<!DOCTYPE svg PUBLIC "-//W3C//DTD SVG 1.1//EN" "http://www.w3.org/Graphics/SVG/1.1/DTD/svg11.dtd">
<svg width="100%" height="100%" viewBox="0 0 733 251" version="1.1" xmlns="http://www.w3.org/2000/svg" xmlns:xlink="http://www.w3.org/1999/xlink" xml:space="preserve" xmlns:serif="http://www.serif.com/" style="fill-rule:evenodd;clip-rule:evenodd;stroke-linejoin:round;stroke-miterlimit:2;">
    <g transform="matrix(1,0,0,1,-33.5601,-174.575)">
        <g transform="matrix(1.44702,0,0,1.44702,-178.859,-63.9677)">
            <g transform="matrix(6.03898,0,0,6.03898,-1000.39,-1015.48)">
                <g transform="matrix(12,0,0,12,199.066,204.377)">
                    <path d="M0.177,-0.253L0.16,-0.253C0.16,-0.253 0.16,-0.017 0.01,-0.017L0.01,-0L0.313,-0L0.313,-0.017C0.175,-0.017 0.177,-0.253 0.177,-0.253ZM0.884,-0.121L0.884,-0.599C0.884,-0.66 0.918,-0.687 0.961,-0.687L0.961,-0.704L0.74,-0.704L0.74,-0.121C0.74,-0.053 0.71,-0.017 0.668,-0.017L0.668,-0L0.97,-0L0.97,-0.017C0.927,-0.017 0.884,-0.053 0.884,-0.121ZM0.047,-0.704L0.047,-0.687C0.072,-0.685 0.122,-0.685 0.16,-0.618L0.457,0.009L0.474,0.009L0.549,-0.178L0.299,-0.704L0.047,-0.704Z" style="fill-rule:nonzero;"/>
                </g>
                <g transform="matrix(12,0,0,12,213.922,204.377)">
                    <path d="M0.61,-0.09C0.61,-0.09 0.601,-0.116 0.356,-0.704L0.339,-0.704L0.271,-0.525L0.398,-0.214L0.151,-0.214C0.065,-0.012 0.041,-0.019 0.017,-0.017L0.017,-0L0.263,-0L0.263,-0.017C0.105,-0.009 0.167,-0.197 0.167,-0.197L0.404,-0.197L0.434,-0.124C0.434,-0.124 0.486,-0.017 0.408,-0.017L0.408,-0L0.694,-0L0.694,-0.017C0.668,-0.019 0.644,-0.01 0.61,-0.09Z" style="fill-rule:nonzero;"/>
                </g>
                <g transform="matrix(12,0,0,12,225.418,204.377)">
                    <path d="M0.604,-0.115C0.555,-0.295 0.475,-0.339 0.41,-0.332C0.529,-0.346 0.605,-0.391 0.605,-0.513C0.605,-0.671 0.479,-0.701 0.297,-0.704L0.297,-0.687C0.379,-0.685 0.442,-0.668 0.442,-0.513C0.442,-0.358 0.379,-0.34 0.297,-0.338L0.297,-0.319C0.325,-0.314 0.382,-0.295 0.407,-0.218C0.477,-0.001 0.451,-0.001 0.629,-0L0.721,-0L0.721,-0.017C0.695,-0.019 0.624,-0.039 0.604,-0.115ZM0.235,-0.704L0.018,-0.704L0.018,-0.687C0.062,-0.687 0.09,-0.66 0.09,-0.598L0.09,-0.121C0.09,-0.053 0.061,-0.017 0.018,-0.017L0.018,-0L0.309,-0L0.309,-0.017C0.267,-0.017 0.235,-0.053 0.235,-0.121L0.235,-0.704Z" style="fill-rule:nonzero;"/>
                </g>
                <g transform="matrix(12,0,0,12,236.71,204.377)">
                    <path d="M0.456,-0.121L0.456,-0.327L0.305,-0.574C0.237,-0.689 0.307,-0.688 0.328,-0.688L0.328,-0.704L0.009,-0.704L0.009,-0.688C0.034,-0.688 0.072,-0.685 0.116,-0.609C0.116,-0.609 0.164,-0.536 0.311,-0.276L0.311,-0.121C0.311,-0.053 0.268,-0.017 0.226,-0.017L0.226,-0L0.541,-0L0.541,-0.017C0.499,-0.017 0.456,-0.053 0.456,-0.121ZM0.458,-0.687C0.602,-0.687 0.51,-0.481 0.51,-0.481L0.522,-0.466C0.634,-0.685 0.732,-0.687 0.758,-0.687L0.758,-0.704L0.458,-0.704L0.458,-0.687Z" style="fill-rule:nonzero;"/>
                </g>
                <g transform="matrix(12,0,0,12,255.142,204.377)">
                    <path d="M0.58,-0.286C0.581,-0.269 0.589,-0.254 0.602,-0.243C0.63,-0.219 0.671,-0.223 0.694,-0.25C0.718,-0.278 0.715,-0.319 0.687,-0.342C0.667,-0.358 0.637,-0.359 0.614,-0.354C0.592,-0.349 0.555,-0.333 0.521,-0.284L0.531,-0.27C0.554,-0.297 0.58,-0.302 0.58,-0.286ZM0.676,-0.083C0.676,-0.083 0.62,-0.082 0.59,-0.127L0.303,-0.555C0.255,-0.626 0.293,-0.7 0.336,-0.715C0.368,-0.726 0.406,-0.714 0.434,-0.685L0.45,-0.698C0.419,-0.734 0.373,-0.752 0.304,-0.74C0.192,-0.72 0.12,-0.593 0.208,-0.467L0.434,-0.136C0.387,-0.043 0.272,-0.056 0.226,-0.115C0.154,-0.207 0.178,-0.296 0.232,-0.338L0.221,-0.354C0.144,-0.308 0.006,-0.21 0.101,-0.068C0.197,0.075 0.405,-0.004 0.447,-0.119L0.5,-0.041C0.541,0.019 0.653,0.008 0.653,0.008C0.718,0.001 0.782,-0.042 0.782,-0.131L0.764,-0.131C0.753,-0.093 0.716,-0.083 0.676,-0.083Z" style="fill-rule:nonzero;"/>
                </g>
                <g transform="matrix(12,0,0,12,189.844,216.299)">
                    <path d="M0.177,-0.253L0.16,-0.253C0.16,-0.253 0.16,-0.017 0.01,-0.017L0.01,-0L0.313,-0L0.313,-0.017C0.175,-0.017 0.177,-0.253 0.177,-0.253ZM0.884,-0.121L0.884,-0.599C0.884,-0.66 0.918,-0.687 0.961,-0.687L0.961,-0.704L0.74,-0.704L0.74,-0.121C0.74,-0.053 0.71,-0.017 0.668,-0.017L0.668,-0L0.97,-0L0.97,-0.017C0.927,-0.017 0.884,-0.053 0.884,-0.121ZM0.047,-0.704L0.047,-0.687C0.072,-0.685 0.122,-0.685 0.16,-0.618L0.457,0.009L0.474,0.009L0.549,-0.178L0.299,-0.704L0.047,-0.704Z" style="fill-rule:nonzero;"/>
                </g>
                <g transform="matrix(12,0,0,12,204.7,216.299)">
                    <path d="M0.61,-0.09C0.61,-0.09 0.601,-0.116 0.356,-0.704L0.339,-0.704L0.271,-0.525L0.398,-0.214L0.151,-0.214C0.065,-0.012 0.041,-0.019 0.017,-0.017L0.017,-0L0.263,-0L0.263,-0.017C0.105,-0.009 0.167,-0.197 0.167,-0.197L0.404,-0.197L0.434,-0.124C0.434,-0.124 0.486,-0.017 0.408,-0.017L0.408,-0L0.694,-0L0.694,-0.017C0.668,-0.019 0.644,-0.01 0.61,-0.09Z" style="fill-rule:nonzero;"/>
                </g>
                <g transform="matrix(12,0,0,12,215.536,216.299)">
                    <path d="M0.405,-0.051C0.31,-0.051 0.237,-0.121 0.237,-0.239L0.237,-0.599C0.237,-0.671 0.287,-0.687 0.33,-0.687L0.33,-0.704L0.012,-0.704L0.012,-0.687C0.056,-0.687 0.092,-0.66 0.092,-0.599L0.092,-0.246C0.092,-0.083 0.204,0.009 0.34,0.009C0.428,0.009 0.587,-0.026 0.587,-0.24L0.57,-0.24C0.57,-0.114 0.481,-0.051 0.405,-0.051ZM0.434,-0.687C0.572,-0.688 0.57,-0.537 0.57,-0.537L0.587,-0.537C0.587,-0.537 0.585,-0.688 0.736,-0.687L0.736,-0.704L0.434,-0.704L0.434,-0.687Z" style="fill-rule:nonzero;"/>
                </g>
                <g transform="matrix(12,0,0,12,227.56,216.299)">
                    <path d="M0.604,-0.115C0.555,-0.295 0.475,-0.339 0.41,-0.332C0.529,-0.346 0.605,-0.391 0.605,-0.513C0.605,-0.671 0.479,-0.701 0.297,-0.704L0.297,-0.687C0.379,-0.685 0.442,-0.668 0.442,-0.513C0.442,-0.358 0.379,-0.34 0.297,-0.338L0.297,-0.319C0.325,-0.314 0.382,-0.295 0.407,-0.218C0.477,-0.001 0.451,-0.001 0.629,-0L0.721,-0L0.721,-0.017C0.695,-0.019 0.624,-0.039 0.604,-0.115ZM0.235,-0.704L0.018,-0.704L0.018,-0.687C0.062,-0.687 0.09,-0.66 0.09,-0.598L0.09,-0.121C0.09,-0.053 0.061,-0.017 0.018,-0.017L0.018,-0L0.309,-0L0.309,-0.017C0.267,-0.017 0.235,-0.053 0.235,-0.121L0.235,-0.704Z" style="fill-rule:nonzero;"/>
                </g>
                <g transform="matrix(12,0,0,12,239.296,216.299)">
                    <path d="M0.039,-0.704L0.039,-0.687C0.083,-0.687 0.124,-0.66 0.124,-0.598L0.124,-0.121C0.124,-0.053 0.082,-0.017 0.039,-0.017L0.039,-0L0.354,-0L0.354,-0.017C0.312,-0.017 0.269,-0.053 0.269,-0.121L0.269,-0.598C0.269,-0.66 0.311,-0.687 0.354,-0.687L0.354,-0.704L0.039,-0.704Z" style="fill-rule:nonzero;"/>
                </g>
                <g transform="matrix(12,0,0,12,246.976,216.299)">
                    <path d="M0.075,-0.704L0.056,-0.502L0.076,-0.502C0.111,-0.603 0.241,-0.687 0.374,-0.687L0.385,-0.704L0.075,-0.704ZM0.271,-0.017L0.262,-0L0.552,-0L0.577,-0.233L0.559,-0.233C0.537,-0.172 0.424,-0.017 0.271,-0.017ZM0.594,-0.704L0.431,-0.704L0.024,-0L0.215,-0L0.594,-0.704Z" style="fill-rule:nonzero;"/>
                </g>
                <g transform="matrix(12,0,0,12,257.38,216.299)">
                    <path d="M0.039,-0.704L0.039,-0.687C0.083,-0.687 0.124,-0.66 0.124,-0.598L0.124,-0.121C0.124,-0.053 0.082,-0.017 0.039,-0.017L0.039,-0L0.354,-0L0.354,-0.017C0.312,-0.017 0.269,-0.053 0.269,-0.121L0.269,-0.598C0.269,-0.66 0.311,-0.687 0.354,-0.687L0.354,-0.704L0.039,-0.704Z" style="fill-rule:nonzero;"/>
                </g>
                <g transform="matrix(12,0,0,12,265.06,216.299)">
                    <path d="M0.212,-0.347C0.212,-0.595 0.257,-0.68 0.353,-0.693L0.353,-0.711C0.154,-0.695 0.041,-0.535 0.041,-0.347C0.041,-0.158 0.154,-0.007 0.353,0.008L0.353,-0.009C0.257,-0.022 0.212,-0.098 0.212,-0.347ZM0.731,-0.347C0.731,-0.535 0.617,-0.696 0.416,-0.711L0.416,-0.694C0.513,-0.68 0.558,-0.596 0.558,-0.347C0.558,-0.096 0.513,-0.021 0.416,-0.009L0.416,0.008C0.617,-0.006 0.731,-0.157 0.731,-0.347Z" style="fill-rule:nonzero;"/>
                </g>
            </g>
            <g transform="matrix(1,0,0,1,-11.4239,-14.767)">
                <g transform="matrix(1.81058,0,0,1.81058,-144.098,-459.486)">
                    <g transform="matrix(12,0,0,12,213.772,448.502)">
                        <path d="M0.414,-0C0.358,-0 0.307,-0.008 0.26,-0.024C0.213,-0.04 0.173,-0.064 0.141,-0.095C0.108,-0.126 0.082,-0.164 0.064,-0.209C0.045,-0.254 0.036,-0.305 0.036,-0.363C0.036,-0.417 0.046,-0.466 0.065,-0.511C0.084,-0.556 0.111,-0.594 0.146,-0.626C0.18,-0.658 0.221,-0.683 0.268,-0.701C0.315,-0.718 0.365,-0.727 0.42,-0.727C0.475,-0.727 0.525,-0.718 0.572,-0.701C0.619,-0.683 0.659,-0.658 0.693,-0.627C0.727,-0.595 0.753,-0.557 0.773,-0.513C0.792,-0.468 0.801,-0.419 0.801,-0.366C0.801,-0.339 0.798,-0.313 0.792,-0.29C0.786,-0.266 0.778,-0.244 0.768,-0.225C0.758,-0.206 0.747,-0.189 0.734,-0.174C0.721,-0.159 0.709,-0.146 0.696,-0.136L0.696,-0.133L0.845,-0.136L0.845,-0L0.414,-0ZM0.62,-0.361C0.62,-0.392 0.615,-0.42 0.606,-0.446C0.596,-0.472 0.582,-0.494 0.565,-0.513C0.547,-0.532 0.526,-0.546 0.501,-0.557C0.476,-0.567 0.449,-0.572 0.42,-0.572C0.391,-0.572 0.365,-0.567 0.341,-0.557C0.316,-0.546 0.295,-0.532 0.277,-0.513C0.259,-0.494 0.245,-0.472 0.235,-0.446C0.225,-0.42 0.22,-0.392 0.22,-0.361C0.22,-0.329 0.225,-0.3 0.235,-0.274C0.244,-0.247 0.258,-0.225 0.276,-0.206C0.293,-0.187 0.314,-0.172 0.339,-0.162C0.363,-0.151 0.39,-0.146 0.419,-0.146C0.448,-0.146 0.474,-0.151 0.499,-0.162C0.524,-0.172 0.545,-0.187 0.563,-0.206C0.581,-0.225 0.595,-0.247 0.605,-0.274C0.615,-0.3 0.62,-0.329 0.62,-0.361Z" style="fill-rule:nonzero;"/>
                    </g>
                    <g transform="matrix(12,0,0,12,230.056,448.502)">
                        <path d="M0.673,-0.267C0.673,-0.224 0.666,-0.186 0.652,-0.151C0.637,-0.116 0.617,-0.086 0.59,-0.061C0.563,-0.035 0.531,-0.016 0.494,-0.002C0.456,0.012 0.414,0.019 0.368,0.019C0.321,0.019 0.279,0.012 0.242,-0.002C0.205,-0.016 0.173,-0.035 0.147,-0.061C0.121,-0.086 0.101,-0.116 0.087,-0.151C0.073,-0.186 0.066,-0.224 0.066,-0.267L0.066,-0.708L0.236,-0.708L0.236,-0.281C0.236,-0.262 0.239,-0.243 0.244,-0.226C0.249,-0.209 0.256,-0.193 0.267,-0.18C0.277,-0.166 0.291,-0.155 0.308,-0.147C0.325,-0.139 0.345,-0.135 0.369,-0.135C0.393,-0.135 0.413,-0.139 0.431,-0.147C0.448,-0.155 0.461,-0.166 0.472,-0.18C0.483,-0.193 0.49,-0.209 0.495,-0.226C0.5,-0.243 0.502,-0.262 0.502,-0.281L0.502,-0.708L0.673,-0.708L0.673,-0.267Z" style="fill-rule:nonzero;"/>
                    </g>
                    <g transform="matrix(12,0,0,12,244.696,448.502)">
                        <path d="M0.553,-0L0.498,-0.139L0.224,-0.139L0.172,-0L-0.014,-0L0.283,-0.708L0.449,-0.708L0.743,-0L0.553,-0ZM0.363,-0.519L0.273,-0.276L0.451,-0.276L0.363,-0.519Z" style="fill-rule:nonzero;"/>
                    </g>
                    <g transform="matrix(12,0,0,12,258.724,448.502)">
                        <path d="M0.376,-0.562L0.376,-0L0.205,-0L0.205,-0.562L0.005,-0.562L0.005,-0.708L0.576,-0.708L0.576,-0.562L0.376,-0.562Z" style="fill-rule:nonzero;"/>
                    </g>
                    <g transform="matrix(12,0,0,12,271.696,448.502)">
                        <path d="M0.376,-0.562L0.376,-0L0.205,-0L0.205,-0.562L0.005,-0.562L0.005,-0.708L0.576,-0.708L0.576,-0.562L0.376,-0.562Z" style="fill-rule:nonzero;"/>
                    </g>
                    <g transform="matrix(12,0,0,12,284.668,448.502)">
                        <path d="M0.452,-0L0.299,-0.281L0.241,-0.281L0.241,-0L0.073,-0L0.073,-0.708L0.343,-0.708C0.377,-0.708 0.41,-0.705 0.443,-0.698C0.475,-0.691 0.504,-0.679 0.53,-0.662C0.555,-0.645 0.576,-0.623 0.591,-0.596C0.606,-0.569 0.614,-0.535 0.614,-0.494C0.614,-0.446 0.601,-0.406 0.575,-0.373C0.549,-0.34 0.513,-0.317 0.467,-0.303L0.652,-0L0.452,-0ZM0.445,-0.491C0.445,-0.508 0.442,-0.521 0.435,-0.532C0.428,-0.542 0.419,-0.55 0.408,-0.556C0.397,-0.561 0.384,-0.565 0.371,-0.567C0.357,-0.569 0.344,-0.57 0.331,-0.57L0.24,-0.57L0.24,-0.405L0.321,-0.405C0.335,-0.405 0.349,-0.406 0.364,-0.409C0.379,-0.411 0.392,-0.415 0.404,-0.421C0.416,-0.427 0.426,-0.436 0.434,-0.447C0.441,-0.458 0.445,-0.473 0.445,-0.491Z" style="fill-rule:nonzero;"/>
                    </g>
                    <g transform="matrix(12,0,0,12,298.624,448.502)">
                        <path d="M0.811,-0.357C0.811,-0.301 0.801,-0.25 0.782,-0.204C0.763,-0.157 0.736,-0.118 0.702,-0.085C0.667,-0.052 0.626,-0.026 0.579,-0.008C0.532,0.01 0.48,0.019 0.425,0.019C0.37,0.019 0.319,0.01 0.272,-0.008C0.225,-0.026 0.184,-0.052 0.15,-0.085C0.115,-0.118 0.088,-0.157 0.069,-0.204C0.05,-0.25 0.04,-0.301 0.04,-0.357C0.04,-0.414 0.05,-0.465 0.069,-0.511C0.088,-0.556 0.115,-0.595 0.15,-0.627C0.184,-0.659 0.225,-0.684 0.272,-0.701C0.319,-0.718 0.37,-0.727 0.425,-0.727C0.48,-0.727 0.532,-0.718 0.579,-0.701C0.626,-0.684 0.667,-0.659 0.702,-0.627C0.736,-0.595 0.763,-0.556 0.782,-0.511C0.801,-0.465 0.811,-0.414 0.811,-0.357ZM0.628,-0.357C0.628,-0.388 0.623,-0.416 0.613,-0.443C0.603,-0.47 0.589,-0.493 0.572,-0.512C0.554,-0.531 0.533,-0.546 0.508,-0.557C0.483,-0.568 0.455,-0.573 0.425,-0.573C0.395,-0.573 0.368,-0.568 0.343,-0.557C0.318,-0.546 0.297,-0.531 0.279,-0.512C0.261,-0.493 0.247,-0.47 0.238,-0.443C0.228,-0.416 0.223,-0.388 0.223,-0.357C0.223,-0.325 0.228,-0.296 0.238,-0.269C0.248,-0.242 0.262,-0.218 0.28,-0.199C0.297,-0.18 0.318,-0.165 0.343,-0.154C0.368,-0.142 0.395,-0.137 0.425,-0.137C0.455,-0.137 0.482,-0.142 0.507,-0.154C0.532,-0.165 0.553,-0.18 0.571,-0.199C0.589,-0.218 0.603,-0.242 0.613,-0.269C0.623,-0.296 0.628,-0.325 0.628,-0.357Z" style="fill-rule:nonzero;"/>
                    </g>
                    <g transform="matrix(12,0,0,12,323.836,448.502)">
                        <path d="M0.447,-0.524C0.432,-0.543 0.413,-0.558 0.39,-0.569C0.366,-0.58 0.343,-0.585 0.321,-0.585C0.31,-0.585 0.298,-0.584 0.287,-0.582C0.275,-0.58 0.264,-0.576 0.255,-0.571C0.246,-0.565 0.238,-0.558 0.232,-0.549C0.225,-0.54 0.222,-0.528 0.222,-0.514C0.222,-0.502 0.225,-0.492 0.23,-0.484C0.235,-0.476 0.242,-0.469 0.252,-0.463C0.261,-0.457 0.273,-0.452 0.286,-0.447C0.299,-0.442 0.314,-0.436 0.331,-0.431C0.355,-0.423 0.38,-0.414 0.406,-0.405C0.432,-0.395 0.456,-0.382 0.477,-0.366C0.498,-0.35 0.516,-0.33 0.53,-0.307C0.544,-0.283 0.551,-0.253 0.551,-0.218C0.551,-0.177 0.544,-0.142 0.529,-0.113C0.514,-0.083 0.493,-0.058 0.468,-0.039C0.443,-0.02 0.414,-0.005 0.381,0.004C0.348,0.013 0.315,0.018 0.28,0.018C0.229,0.018 0.18,0.009 0.133,-0.009C0.086,-0.026 0.046,-0.051 0.015,-0.084L0.127,-0.198C0.144,-0.177 0.167,-0.159 0.196,-0.145C0.224,-0.13 0.252,-0.123 0.28,-0.123C0.293,-0.123 0.305,-0.124 0.317,-0.127C0.329,-0.13 0.339,-0.134 0.349,-0.14C0.358,-0.146 0.365,-0.154 0.37,-0.164C0.375,-0.174 0.378,-0.186 0.378,-0.2C0.378,-0.213 0.375,-0.225 0.368,-0.234C0.361,-0.243 0.352,-0.252 0.34,-0.26C0.327,-0.267 0.312,-0.274 0.294,-0.281C0.275,-0.287 0.254,-0.294 0.231,-0.301C0.208,-0.308 0.186,-0.317 0.165,-0.327C0.143,-0.337 0.124,-0.35 0.107,-0.366C0.09,-0.381 0.076,-0.4 0.066,-0.423C0.055,-0.445 0.05,-0.472 0.05,-0.504C0.05,-0.543 0.058,-0.577 0.074,-0.605C0.09,-0.633 0.111,-0.656 0.137,-0.674C0.163,-0.692 0.192,-0.705 0.225,-0.714C0.258,-0.722 0.291,-0.726 0.324,-0.726C0.364,-0.726 0.405,-0.719 0.447,-0.704C0.488,-0.689 0.525,-0.668 0.556,-0.639L0.447,-0.524Z" style="fill-rule:nonzero;"/>
                    </g>
                    <g transform="matrix(12,0,0,12,336.772,448.502)">
                        <path d="M0.376,-0.562L0.376,-0L0.205,-0L0.205,-0.562L0.005,-0.562L0.005,-0.708L0.576,-0.708L0.576,-0.562L0.376,-0.562Z" style="fill-rule:nonzero;"/>
                    </g>
                    <g transform="matrix(12,0,0,12,349.744,448.502)">
                        <path d="M0.673,-0.267C0.673,-0.224 0.666,-0.186 0.652,-0.151C0.637,-0.116 0.617,-0.086 0.59,-0.061C0.563,-0.035 0.531,-0.016 0.494,-0.002C0.456,0.012 0.414,0.019 0.368,0.019C0.321,0.019 0.279,0.012 0.242,-0.002C0.205,-0.016 0.173,-0.035 0.147,-0.061C0.121,-0.086 0.101,-0.116 0.087,-0.151C0.073,-0.186 0.066,-0.224 0.066,-0.267L0.066,-0.708L0.236,-0.708L0.236,-0.281C0.236,-0.262 0.239,-0.243 0.244,-0.226C0.249,-0.209 0.256,-0.193 0.267,-0.18C0.277,-0.166 0.291,-0.155 0.308,-0.147C0.325,-0.139 0.345,-0.135 0.369,-0.135C0.393,-0.135 0.413,-0.139 0.431,-0.147C0.448,-0.155 0.461,-0.166 0.472,-0.18C0.483,-0.193 0.49,-0.209 0.495,-0.226C0.5,-0.243 0.502,-0.262 0.502,-0.281L0.502,-0.708L0.673,-0.708L0.673,-0.267Z" style="fill-rule:nonzero;"/>
                    </g>
                    <g transform="matrix(12,0,0,12,364.6,448.502)">
                        <path d="M0.734,-0.356C0.734,-0.294 0.723,-0.241 0.7,-0.196C0.677,-0.151 0.646,-0.114 0.609,-0.085C0.571,-0.056 0.528,-0.034 0.481,-0.021C0.434,-0.007 0.386,-0 0.337,-0L0.073,-0L0.073,-0.708L0.329,-0.708C0.379,-0.708 0.428,-0.702 0.477,-0.691C0.526,-0.679 0.569,-0.66 0.607,-0.633C0.645,-0.606 0.676,-0.569 0.699,-0.524C0.722,-0.479 0.734,-0.423 0.734,-0.356ZM0.556,-0.356C0.556,-0.396 0.55,-0.429 0.537,-0.456C0.524,-0.482 0.506,-0.503 0.485,-0.519C0.463,-0.534 0.438,-0.545 0.411,-0.552C0.383,-0.559 0.354,-0.562 0.325,-0.562L0.24,-0.562L0.24,-0.148L0.321,-0.148C0.352,-0.148 0.381,-0.152 0.41,-0.159C0.438,-0.166 0.463,-0.177 0.485,-0.193C0.506,-0.209 0.524,-0.23 0.537,-0.257C0.55,-0.284 0.556,-0.317 0.556,-0.356Z" style="fill-rule:nonzero;"/>
                    </g>
                    <g transform="matrix(12,0,0,12,379.888,448.502)">
                        <rect x="0.073" y="-0.708" width="0.172" height="0.708" style="fill-rule:nonzero;"/>
                    </g>
                    <g transform="matrix(12,0,0,12,389.704,448.502)">
                        <path d="M0.811,-0.357C0.811,-0.301 0.801,-0.25 0.782,-0.204C0.763,-0.157 0.736,-0.118 0.702,-0.085C0.667,-0.052 0.626,-0.026 0.579,-0.008C0.532,0.01 0.48,0.019 0.425,0.019C0.37,0.019 0.319,0.01 0.272,-0.008C0.225,-0.026 0.184,-0.052 0.15,-0.085C0.115,-0.118 0.088,-0.157 0.069,-0.204C0.05,-0.25 0.04,-0.301 0.04,-0.357C0.04,-0.414 0.05,-0.465 0.069,-0.511C0.088,-0.556 0.115,-0.595 0.15,-0.627C0.184,-0.659 0.225,-0.684 0.272,-0.701C0.319,-0.718 0.37,-0.727 0.425,-0.727C0.48,-0.727 0.532,-0.718 0.579,-0.701C0.626,-0.684 0.667,-0.659 0.702,-0.627C0.736,-0.595 0.763,-0.556 0.782,-0.511C0.801,-0.465 0.811,-0.414 0.811,-0.357ZM0.628,-0.357C0.628,-0.388 0.623,-0.416 0.613,-0.443C0.603,-0.47 0.589,-0.493 0.572,-0.512C0.554,-0.531 0.533,-0.546 0.508,-0.557C0.483,-0.568 0.455,-0.573 0.425,-0.573C0.395,-0.573 0.368,-0.568 0.343,-0.557C0.318,-0.546 0.297,-0.531 0.279,-0.512C0.261,-0.493 0.247,-0.47 0.238,-0.443C0.228,-0.416 0.223,-0.388 0.223,-0.357C0.223,-0.325 0.228,-0.296 0.238,-0.269C0.248,-0.242 0.262,-0.218 0.28,-0.199C0.297,-0.18 0.318,-0.165 0.343,-0.154C0.368,-0.142 0.395,-0.137 0.425,-0.137C0.455,-0.137 0.482,-0.142 0.507,-0.154C0.532,-0.165 0.553,-0.18 0.571,-0.199C0.589,-0.218 0.603,-0.242 0.613,-0.269C0.623,-0.296 0.628,-0.325 0.628,-0.357Z" style="fill-rule:nonzero;"/>
                    </g>
                </g>
                <g transform="matrix(0.658449,0,0,0.658449,86.1267,117.109)">
                    <circle cx="206.524" cy="346.155" r="7.985"/>
                </g>
                <g transform="matrix(0.658449,0,0,0.658449,464.75,117.109)">
                    <circle cx="206.524" cy="346.155" r="7.985"/>
                </g>
            </g>
        </g>
    </g>
</svg>
