<?xml version="1.0" encoding="UTF-8" standalone="no"?>
<!DOCTYPE svg PUBLIC "-//W3C//DTD SVG 1.1//EN" "http://www.w3.org/Graphics/SVG/1.1/DTD/svg11.dtd">
<svg width="100%" height="100%" viewBox="0 0 521 199" version="1.1" xmlns="http://www.w3.org/2000/svg" xmlns:xlink="http://www.w3.org/1999/xlink" xml:space="preserve" xmlns:serif="http://www.serif.com/" style="fill-rule:evenodd;clip-rule:evenodd;stroke-linejoin:round;stroke-miterlimit:2;">
    <g transform="matrix(1,0,0,1,-139.869,-200.631)">
        <g transform="matrix(1.39485,0,0,1.39485,-182.897,-217.825)">
            <g transform="matrix(169.99,0,0,169.99,229.698,440.95)">
                <path d="M0.177,-0.253L0.16,-0.253C0.16,-0.253 0.16,-0.017 0.01,-0.017L0.01,-0L0.313,-0L0.313,-0.017C0.175,-0.017 0.177,-0.253 0.177,-0.253ZM0.047,-0.704L0.047,-0.687C0.072,-0.685 0.122,-0.685 0.16,-0.618L0.457,0.009L0.474,0.009L0.549,-0.178L0.299,-0.704L0.047,-0.704Z" style="fill-rule:nonzero;"/>
            </g>
            <g transform="matrix(169.99,0,0,169.99,439.495,440.95)">
                <path d="M0.884,-0.121L0.884,-0.599C0.884,-0.66 0.918,-0.687 0.961,-0.687L0.961,-0.704L0.74,-0.704L0.74,-0.121C0.74,-0.053 0.71,-0.017 0.668,-0.017L0.668,-0L0.97,-0L0.97,-0.017C0.927,-0.017 0.884,-0.053 0.884,-0.121ZM0.047,-0.704L0.047,-0.687C0.072,-0.685 0.122,-0.685 0.16,-0.618L0.457,0.009L0.474,0.009L0.549,-0.178L0.299,-0.704L0.047,-0.704Z" style="fill-rule:nonzero;"/>
            </g>
            <g transform="matrix(189.276,0,0,189.276,328.204,440.765)">
                <path d="M0.58,-0.286C0.581,-0.269 0.589,-0.254 0.602,-0.243C0.63,-0.219 0.671,-0.223 0.694,-0.25C0.718,-0.278 0.715,-0.319 0.687,-0.342C0.667,-0.358 0.637,-0.359 0.614,-0.354C0.592,-0.349 0.555,-0.333 0.521,-0.284L0.531,-0.27C0.554,-0.297 0.58,-0.302 0.58,-0.286ZM0.676,-0.083C0.676,-0.083 0.62,-0.082 0.59,-0.127L0.303,-0.555C0.255,-0.626 0.293,-0.7 0.336,-0.715C0.368,-0.726 0.406,-0.714 0.434,-0.685L0.45,-0.698C0.419,-0.734 0.373,-0.752 0.304,-0.74C0.192,-0.72 0.12,-0.593 0.208,-0.467L0.434,-0.136C0.387,-0.043 0.272,-0.056 0.226,-0.115C0.154,-0.207 0.178,-0.296 0.232,-0.338L0.221,-0.354C0.144,-0.308 0.006,-0.21 0.101,-0.068C0.197,0.075 0.405,-0.004 0.447,-0.119L0.5,-0.041C0.541,0.019 0.653,0.008 0.653,0.008C0.718,0.001 0.782,-0.042 0.782,-0.131L0.764,-0.131C0.753,-0.093 0.716,-0.083 0.676,-0.083Z" style="fill-rule:nonzero;"/>
            </g>
        </g>
    </g>
</svg>
